{"title":"CRASH.1996.HQ.720p.x264.AC3.[FrOnkY]","uid":12685343,"size":3481815270,"categoryP":"video","categoryS":"hd___movies","magnet":"?xt=urn:btih:058d9a5c37715dcb2bb7b65c5711cdd56ae546db&amp;dn=CRASH.1996.HQ.720p.x264.AC3.%5BFrOnkY%5D&amp;tr=udp%3A%2F%2Ftracker.leechers-paradise.org%3A6969&amp;tr=udp%3A%2F%2Fzer0day.ch%3A1337&amp;tr=udp%3A%2F%2Fopen.demonii.com%3A1337&amp;tr=udp%3A%2F%2Ftracker.coppersurfer.tk%3A6969&amp;tr=udp%3A%2F%2Fexodus.desync.com%3A6969","seeders":1,"leechers":0,"uploader":"HDmEntEs","files":1,"time":1446593593,"description":"CRASH.1996.HQ.720p.x264.AC3.[FrOnkY].mkv\r\n\r\n\r\nFormat                                   : Matroska\r\nFormat version                           : Version 4 / Version 2\r\nFile size                                : 3.24 GiB\r\nDuration                                 : 1h 39mn\r\nOverall bit rate                         : 4 653 Kbps\r\nWriting application                      : mkvmerge v6.9.1 ('Blue Panther')\r\nWriting library                          : libebml v1.3.0 + libmatroska v1.4.1\r\nAttachements                             : CRASH.jpg\r\n\r\nVideo\r\nID                                       : 1\r\nFormat                                   : AVC\r\nFormat/Info                              : Advanced Video Codec\r\nFormat profile                           :   \r\nFormat settings, CABAC                   : Yes\r\nFormat settings, ReFrames                : 9 frames\r\nCodec ID                                 : V_MPEG4/ISO/AVC\r\nDuration                                 : 1h 39mn\r\nBit rate                                 : 3 690 Kbps\r\nWidth                                    : 1 280 pixels\r\nHeight                                   : 702 pixels\r\nDisplay aspect ratio                     : 1.85:1\r\nFrame rate mode                          : Constant\r\nFrame rate                               : 23.976 fps\r\nColor space                              : YUV\r\nChroma subsampling                       : 4:2:0\r\nBit depth                                : 8 bits\r\nScan type                                : Progressive\r\nBits/(Pixel*Frame)                       : 0.171\r\nStream size                              : 2.51 GiB (77%)\r\nWriting library                          : x264 core 148 r2597 e86f3a1\r\nLanguage                                 : English\r\nDefault                                  : Yes\r\nForced                                   : No\r\n\r\nAudio #1\r\nID                                       : 2\r\nFormat                                   : AC-3\r\nFormat/Info                              : Audio Coding 3\r\nMode extension                           : CM (complete main)\r\nFormat settings, Endianness              : Big\r\nCodec ID                                 : A_AC3\r\nDuration                                 : 1h 39mn\r\nBit rate mode                            : Constant\r\nBit rate                                 : 384 Kbps\r\nChannel(s)                               : 6 channels\r\nChannel positions                        : Front: L C R, Side: L R, LFE\r\nSampling rate                            : 48.0 KHz\r\nBit depth                                : 16 bits\r\nStream size                              : 274 MiB (8%)\r\nLanguage                                 : English\r\nDefault                                  : Yes\r\nForced                                   : No\r\n\r\nAudio #2\r\nID                                       : 3\r\nFormat                                   : AC-3\r\nFormat/Info                              : Audio Coding 3\r\nFormat profile                           : Dolby Digital\r\nMode extension                           : CM (complete main)\r\nFormat settings, Endianness              : Big\r\nCodec ID                                 : A_AC3\r\nDuration                                 : 1h 39mn\r\nBit rate mode                            : Constant\r\nBit rate                                 : 192 Kbps\r\nChannel(s)                               : 2 channels\r\nChannel positions                        : Front: L R\r\nSampling rate                            : 48.0 KHz\r\nBit depth                                : 16 bits\r\nStream size                              : 137 MiB (4%)\r\nLanguage                                 : English\r\nDefault                                  : No\r\nForced                                   : No\r\n\r\nAudio #3\r\nID                                       : 4\r\nFormat                                   : AC-3\r\nFormat/Info                              : Audio Coding 3\r\nMode extension                           : CM (complete main)\r\nFormat settings, Endianness              : Big\r\nCodec ID                                 : A_AC3\r\nDuration                                 : 1h 39mn\r\nBit rate mode                            : Constant\r\nBit rate                                 : 384 Kbps\r\nChannel(s)                               : 6 channels\r\nChannel positions                        : Front: L C R, Side: L R, LFE\r\nSampling rate                            : 48.0 KHz\r\nBit depth                                : 16 bits\r\nStream size                              : 274 MiB (8%)\r\nLanguage                                 : Spanish\r\nDefault                                  : No\r\nForced                                   : No\r\n\r\nText #1\r\nID                                       : 5\r\nFormat                                   : UTF-8\r\nCodec ID                                 : S_TEXT/UTF8\r\nCodec ID/Info                            : UTF-8 Plain Text\r\nLanguage                                 : English\r\nDefault                                  : No\r\nForced                                   : No\r\n\r\nText #2\r\nID                                       : 6\r\nFormat                                   : UTF-8\r\nCodec ID                                 : S_TEXT/UTF8\r\nCodec ID/Info                            : UTF-8 Plain Text\r\nLanguage                                 : Spanish\r\nDefault                                  : No\r\nForced                                   : No\r\n\r\nText #3\r\nID                                       : 7\r\nFormat                                   : UTF-8\r\nCodec ID                                 : S_TEXT/UTF8\r\nCodec ID/Info                            : UTF-8 Plain Text\r\nLanguage                                 : French\r\nDefault                                  : No\r\nForced                                   : No\r\n\r\nText #4\r\nID                                       : 8\r\nFormat                                   : UTF-8\r\nCodec ID                                 : S_TEXT/UTF8\r\nCodec ID/Info                            : UTF-8 Plain Text\r\nLanguage                                 : Portuguese\r\nDefault                                  : No\r\nForced                                   : No\r\n\r\nMenu\r\n00:00:00.000                             : en:Chapter 01\r\n00:02:21.444                             : en:Chapter 02\r\n00:06:37.111                             : en:Chapter 03\r\n00:08:19.666                             : en:Chapter 04\r\n00:14:51.666                             : en:Chapter 05\r\n00:20:45.222                             : en:Chapter 06\r\n00:25:23.333                             : en:Chapter 07\r\n00:32:35.222                             : en:Chapter 08\r\n00:34:05.999                             : en:Chapter 09\r\n00:40:14.555                             : en:Chapter 10\r\n00:43:04.444                             : en:Chapter 11\r\n00:48:22.888                             : en:Chapter 12\r\n00:50:49.777                             : en:Chapter 13\r\n00:57:04.111                             : en:Chapter 14\r\n01:04:35.444                             : en:Chapter 15\r\n01:09:14.222                             : en:Chapter 16\r\n01:11:22.111                             : en:Chapter 17\r\n01:16:20.222                             : en:Chapter 18\r\n01:23:04.222                             : en:Chapter 19\r\n01:29:50.111                             : en:Chapter 20\r\n01:36:12.666                             : en:Chapter 21\r\n\r\n \nhttp://i.imgur.com/LJSBRoe.png","torrent":{"xt":"urn:btih:058d9a5c37715dcb2bb7b65c5711cdd56ae546db","amp;dn":"CRASH.1996.HQ.720p.x264.AC3.%5BFrOnkY%5D","amp;tr":["udp%3A%2F%2Ftracker.leechers-paradise.org%3A6969","udp%3A%2F%2Fzer0day.ch%3A1337","udp%3A%2F%2Fopen.demonii.com%3A1337","udp%3A%2F%2Ftracker.coppersurfer.tk%3A6969","udp%3A%2F%2Fexodus.desync.com%3A6969"],"infoHash":"058d9a5c37715dcb2bb7b65c5711cdd56ae546db","infoHashBuffer":{"type":"Buffer","data":[5,141,154,92,55,113,93,203,43,183,182,92,87,17,205,213,106,229,70,219]},"announce":[],"urlList":[]}}